<svg xmlns="http://www.w3.org/2000/svg" xmlns:xlink="http://www.w3.org/1999/xlink" width="500" zoomAndPan="magnify" viewBox="0 0 375 374.999991" height="500" preserveAspectRatio="xMidYMid meet" version="1.0"><defs><g/></defs><g fill="#cb6ce6" fill-opacity="1"><g transform="translate(27.639123, 199.321429)"><g><path d="M 22.695312 -35.433594 L 16.980469 -19.484375 L 8.492188 -43.214844 C 8.4375 -43.433594 8.21875 -43.542969 7.945312 -43.542969 L 0.542969 -43.542969 C 0.109375 -43.542969 -0.109375 -43.214844 0.0546875 -42.886719 L 16.4375 -0.273438 C 16.65625 0.109375 17.308594 0.109375 17.472656 -0.273438 L 31.078125 -35.433594 Z M 22.695312 -35.433594 "/></g></g></g><g fill="#cb6ce6" fill-opacity="1"><g transform="translate(66.277905, 199.321429)"><g><path d="M 34.179688 -0.652344 L 17.632812 -43.214844 C 17.472656 -43.652344 16.710938 -43.652344 16.546875 -43.214844 L 0.0546875 -0.652344 C -0.109375 -0.328125 0.109375 0 0.597656 0 L 8.054688 0 C 8.273438 0 8.546875 -0.109375 8.597656 -0.328125 L 17.089844 -24.601562 L 25.691406 -0.328125 C 25.742188 -0.109375 26.015625 0 26.179688 0 L 33.691406 0 C 34.070312 0 34.34375 -0.328125 34.179688 -0.652344 Z M 34.179688 -0.652344 "/></g></g></g><g fill="#cb6ce6" fill-opacity="1"><g transform="translate(108.181849, 199.321429)"><g><path d="M 8.980469 -27.757812 L 8.980469 -0.488281 C 8.980469 -0.273438 9.199219 0 9.578125 0 L 16.601562 0 C 16.980469 0 17.253906 -0.273438 17.253906 -0.488281 L 17.253906 -27.757812 Z M 0.597656 -36.085938 L 25.582031 -36.085938 C 25.960938 -36.085938 26.179688 -36.304688 26.179688 -36.574219 L 26.179688 -43.050781 C 26.179688 -43.269531 25.960938 -43.542969 25.582031 -43.542969 L 0.597656 -43.542969 C 0.273438 -43.542969 0 -43.269531 0 -43.050781 L 0 -36.574219 C 0 -36.304688 0.273438 -36.085938 0.597656 -36.085938 Z M 0.597656 -36.085938 "/></g></g></g><g fill="#cb6ce6" fill-opacity="1"><g transform="translate(141.650798, 199.321429)"><g><path d="M 8.328125 -24.65625 L 8.328125 -43.050781 C 8.328125 -43.269531 8.109375 -43.542969 7.730469 -43.542969 L 0.597656 -43.542969 C 0.273438 -43.542969 0 -43.269531 0 -43.050781 L 0 -24.65625 Z M 32.546875 -43.542969 L 25.417969 -43.542969 C 25.089844 -43.542969 24.820312 -43.269531 24.820312 -43.050781 L 24.820312 -16.273438 L 8.328125 -16.273438 L 8.328125 -16.328125 L 0 -16.328125 L 0 -0.488281 C 0 -0.273438 0.273438 0 0.597656 0 L 7.730469 0 C 8.109375 0 8.328125 -0.273438 8.328125 -0.488281 L 8.328125 -8.164062 L 24.820312 -8.164062 L 24.820312 -0.488281 C 24.820312 -0.273438 25.089844 0 25.417969 0 L 32.546875 0 C 32.929688 0 33.144531 -0.273438 33.144531 -0.488281 L 33.144531 -43.050781 C 33.144531 -43.269531 32.929688 -43.542969 32.546875 -43.542969 Z M 32.546875 -43.542969 "/></g></g></g><g fill="#cb6ce6" fill-opacity="1"><g transform="translate(182.466353, 199.321429)"><g><path d="M 34.179688 -0.652344 L 17.632812 -43.214844 C 17.472656 -43.652344 16.710938 -43.652344 16.546875 -43.214844 L 0.0546875 -0.652344 C -0.109375 -0.328125 0.109375 0 0.597656 0 L 8.054688 0 C 8.273438 0 8.546875 -0.109375 8.597656 -0.328125 L 17.089844 -24.601562 L 25.691406 -0.328125 C 25.742188 -0.109375 26.015625 0 26.179688 0 L 33.691406 0 C 34.070312 0 34.34375 -0.328125 34.179688 -0.652344 Z M 34.179688 -0.652344 "/></g></g></g><g fill="#cb6ce6" fill-opacity="1"><g transform="translate(224.370292, 199.321429)"><g><path d="M 36.03125 -43.542969 L 29.007812 -43.542969 C 28.628906 -43.542969 28.355469 -43.269531 28.355469 -43.050781 L 28.355469 -14.695312 L 8.273438 -43.378906 C 8.21875 -43.488281 7.890625 -43.542969 7.78125 -43.542969 L 0.542969 -43.542969 C 0.273438 -43.542969 0 -43.269531 0 -43.050781 L 0 -10.449219 L 8.328125 -10.449219 L 8.328125 -28.847656 L 28.355469 -0.164062 C 28.410156 -0.0546875 28.738281 0 28.847656 0 L 36.03125 0 C 36.410156 0 36.628906 -0.273438 36.628906 -0.488281 L 36.628906 -43.050781 C 36.628906 -43.269531 36.410156 -43.542969 36.03125 -43.542969 Z M 36.03125 -43.542969 "/></g></g></g><g fill="#cb6ce6" fill-opacity="1"><g transform="translate(268.83195, 199.321429)"><g><path d="M 34.179688 -0.652344 L 17.632812 -43.214844 C 17.472656 -43.652344 16.710938 -43.652344 16.546875 -43.214844 L 0.0546875 -0.652344 C -0.109375 -0.328125 0.109375 0 0.597656 0 L 8.054688 0 C 8.273438 0 8.546875 -0.109375 8.597656 -0.328125 L 17.089844 -24.601562 L 25.691406 -0.328125 C 25.742188 -0.109375 26.015625 0 26.179688 0 L 33.691406 0 C 34.070312 0 34.34375 -0.328125 34.179688 -0.652344 Z M 34.179688 -0.652344 "/></g></g></g><g fill="#cb6ce6" fill-opacity="1"><g transform="translate(310.735889, 199.321429)"><g><path d="M 34.722656 -0.816406 L 17.253906 -21.390625 L 34.5625 -42.726562 C 34.941406 -43.105469 34.671875 -43.542969 34.070312 -43.542969 L 25.199219 -43.542969 C 25.089844 -43.542969 24.765625 -43.433594 24.710938 -43.378906 L 8.328125 -23.242188 L 8.328125 -43.050781 C 8.328125 -43.269531 8.109375 -43.542969 7.78125 -43.542969 L 0.597656 -43.542969 C 0.273438 -43.542969 0 -43.269531 0 -43.050781 L 0 -2.667969 C 0 -2.667969 10.613281 -14.695312 11.703125 -15.839844 L 24.382812 -0.164062 C 24.4375 -0.109375 24.765625 0 24.875 0 L 34.234375 0 C 34.777344 0 35.050781 -0.382812 34.722656 -0.816406 Z M 34.722656 -0.816406 "/></g></g></g><path stroke-linecap="butt" transform="matrix(-0.895549, -0.00000000000000011, 0.00000000000000011, -0.900047, 375.48748, 137.609362)" fill="none" stroke-linejoin="miter" d="M -0.000894878 4.999727 L 84.431438 4.999727 " stroke="#d9d9d9" stroke-width="10" stroke-opacity="1" stroke-miterlimit="4"/><path stroke-linecap="butt" transform="matrix(0.000000000000000055, -0.8951, 0.900047, 0.000000000000000055, 366.491611, 205.525299)" fill="none" stroke-linejoin="miter" d="M 0.00207999 5.000382 L 82.464897 5.000382 " stroke="#d9d9d9" stroke-width="10" stroke-opacity="1" stroke-miterlimit="4"/><path stroke-linecap="butt" transform="matrix(0.895549, 0, 0, 0.900047, 0.0000045, 216.960029)" fill="none" stroke-linejoin="miter" d="M -0.00000502485 5.000751 L 84.432328 5.000751 " stroke="#d9d9d9" stroke-width="10" stroke-opacity="1" stroke-miterlimit="4"/><path stroke-linecap="butt" transform="matrix(0.000000000000000055, 0.8951, -0.900047, 0.000000000000000055, 8.995856, 149.044092)" fill="none" stroke-linejoin="miter" d="M -0.00125468 4.999478 L 82.461563 4.999478 " stroke="#d9d9d9" stroke-width="10" stroke-opacity="1" stroke-miterlimit="4"/></svg>